<svg width="80" height="88" viewBox="0 0 80 88" fill="none" xmlns="http://www.w3.org/2000/svg">
<g filter="url(#filter0_b_525_3840)">
<path d="M0 47.8954C0 25.8618 17.9664 8 40 8C62.0336 8 80 25.8618 80 47.8954C80 69.929 62.0336 87.7908 40 87.7908C17.9664 87.7908 0 69.929 0 47.8954Z" fill="url(#paint0_radial_525_3840)"/>
<path d="M0.5 47.8954C0.5 26.1396 18.2408 8.5 40 8.5C61.7592 8.5 79.5 26.1396 79.5 47.8954C79.5 69.6512 61.7592 87.2908 40 87.2908C18.2408 87.2908 0.5 69.6512 0.5 47.8954Z" stroke="url(#paint1_radial_525_3840)"/>
<path d="M0.5 47.8954C0.5 26.1396 18.2408 8.5 40 8.5C61.7592 8.5 79.5 26.1396 79.5 47.8954C79.5 69.6512 61.7592 87.2908 40 87.2908C18.2408 87.2908 0.5 69.6512 0.5 47.8954Z" stroke="url(#paint2_radial_525_3840)"/>
</g>
<g filter="url(#filter1_f_525_3840)">
<ellipse cx="39.7435" cy="29.4821" rx="25.3846" ry="16.3673" fill="url(#paint3_radial_525_3840)" fill-opacity="0.2"/>
</g>
<mask id="mask0_525_3840" style="mask-type:alpha" maskUnits="userSpaceOnUse" x="18" y="26" width="44" height="44">
<rect x="18" y="26" width="44" height="44" fill="#D9D9D9"/>
</mask>
<g mask="url(#mask0_525_3840)">
<path d="M38.1665 62.6665H28.9999C28.4804 62.6665 28.045 62.4908 27.6936 62.1395C27.3422 61.7881 27.1665 61.3526 27.1665 60.8332V47.9999H24.0499C23.6221 47.9999 23.3318 47.8013 23.179 47.404C23.0263 47.0068 23.1179 46.6707 23.454 46.3957L38.7624 32.5999C39.0985 32.2638 39.511 32.0957 39.9999 32.0957C40.4888 32.0957 40.9013 32.2638 41.2374 32.5999L47.3332 38.0999V34.2499C47.3332 34.0054 47.4249 33.7915 47.6082 33.6082C47.7915 33.4249 48.0054 33.3332 48.2499 33.3332H51.9165C52.161 33.3332 52.3749 33.4249 52.5582 33.6082C52.7415 33.7915 52.8332 34.0054 52.8332 34.2499V43.0499L56.5457 46.3957C56.8818 46.6707 56.9735 47.0068 56.8207 47.404C56.6679 47.8013 56.3776 47.9999 55.9499 47.9999H52.8332V60.8332C52.8332 61.3526 52.6575 61.7881 52.3061 62.1395C51.9547 62.4908 51.5193 62.6665 50.9999 62.6665H41.8332V51.6665H38.1665V62.6665ZM30.8332 58.9999H34.4999V47.9999H45.4999V58.9999H49.1665V44.6999L39.9999 36.4499L30.8332 44.6999V58.9999ZM36.3332 44.379H43.6665C43.6665 43.4013 43.2999 42.5992 42.5665 41.9728C41.8332 41.3464 40.9776 41.0332 39.9999 41.0332C39.0221 41.0332 38.1665 41.3464 37.4332 41.9728C36.6999 42.5992 36.3332 43.4013 36.3332 44.379Z" fill="url(#paint4_linear_525_3840)"/>
</g>
<defs>
<filter id="filter0_b_525_3840" x="-5" y="3" width="90" height="89.7908" filterUnits="userSpaceOnUse" color-interpolation-filters="sRGB">
<feFlood flood-opacity="0" result="BackgroundImageFix"/>
<feGaussianBlur in="BackgroundImageFix" stdDeviation="2.5"/>
<feComposite in2="SourceAlpha" operator="in" result="effect1_backgroundBlur_525_3840"/>
<feBlend mode="normal" in="SourceGraphic" in2="effect1_backgroundBlur_525_3840" result="shape"/>
</filter>
<filter id="filter1_f_525_3840" x="1.40435" y="0.160212" width="76.6784" height="58.6437" filterUnits="userSpaceOnUse" color-interpolation-filters="sRGB">
<feFlood flood-opacity="0" result="BackgroundImageFix"/>
<feBlend mode="normal" in="SourceGraphic" in2="BackgroundImageFix" result="shape"/>
<feGaussianBlur stdDeviation="6.47727" result="effect1_foregroundBlur_525_3840"/>
</filter>
<radialGradient id="paint0_radial_525_3840" cx="0" cy="0" r="1" gradientUnits="userSpaceOnUse" gradientTransform="translate(6.69204 8) rotate(47.9449) scale(119.431 86.7751)">
<stop stop-color="white" stop-opacity="0.36"/>
<stop offset="1" stop-color="white" stop-opacity="0"/>
</radialGradient>
<radialGradient id="paint1_radial_525_3840" cx="0" cy="0" r="1" gradientUnits="userSpaceOnUse" gradientTransform="translate(-42.5965 16.1628) rotate(35.0407) scale(92.1512 54.3882)">
<stop stop-color="white"/>
<stop offset="1" stop-color="white" stop-opacity="0.06"/>
</radialGradient>
<radialGradient id="paint2_radial_525_3840" cx="0" cy="0" r="1" gradientUnits="userSpaceOnUse" gradientTransform="translate(40.871 -10.2359) rotate(47.2149) scale(44.643 32.0879)">
<stop/>
<stop offset="1" stop-color="white" stop-opacity="0"/>
</radialGradient>
<radialGradient id="paint3_radial_525_3840" cx="0" cy="0" r="1" gradientUnits="userSpaceOnUse" gradientTransform="translate(39.7435 13.1147) rotate(90) scale(24.2566 37.625)">
<stop stop-color="white"/>
<stop offset="1" stop-color="white" stop-opacity="0"/>
</radialGradient>
<linearGradient id="paint4_linear_525_3840" x1="39.9999" y1="32.0957" x2="39.9999" y2="62.6665" gradientUnits="userSpaceOnUse">
<stop stop-color="#7049C3"/>
<stop offset="1" stop-color="#DC8DF8"/>
</linearGradient>
</defs>
</svg>
