<svg width="80" height="88" viewBox="0 0 80 88" fill="none" xmlns="http://www.w3.org/2000/svg">
<g filter="url(#filter0_b_525_3822)">
<path d="M0 47.8954C0 25.8618 17.9664 8 40 8C62.0336 8 80 25.8618 80 47.8954C80 69.929 62.0336 87.7908 40 87.7908C17.9664 87.7908 0 69.929 0 47.8954Z" fill="url(#paint0_radial_525_3822)"/>
<path d="M0.5 47.8954C0.5 26.1396 18.2408 8.5 40 8.5C61.7592 8.5 79.5 26.1396 79.5 47.8954C79.5 69.6512 61.7592 87.2908 40 87.2908C18.2408 87.2908 0.5 69.6512 0.5 47.8954Z" stroke="url(#paint1_radial_525_3822)"/>
<path d="M0.5 47.8954C0.5 26.1396 18.2408 8.5 40 8.5C61.7592 8.5 79.5 26.1396 79.5 47.8954C79.5 69.6512 61.7592 87.2908 40 87.2908C18.2408 87.2908 0.5 69.6512 0.5 47.8954Z" stroke="url(#paint2_radial_525_3822)"/>
</g>
<g filter="url(#filter1_f_525_3822)">
<ellipse cx="39.7435" cy="29.4821" rx="25.3846" ry="16.3673" fill="url(#paint3_radial_525_3822)" fill-opacity="0.2"/>
</g>
<mask id="mask0_525_3822" style="mask-type:alpha" maskUnits="userSpaceOnUse" x="18" y="26" width="44" height="44">
<rect x="18" y="26" width="44" height="44" fill="#D9D9D9"/>
</mask>
<g mask="url(#mask0_525_3822)">
<path d="M37.2502 49.8333V52.5833C37.2502 53.1028 37.4259 53.5382 37.7772 53.8896C38.1286 54.241 38.5641 54.4167 39.0835 54.4167H40.9168C41.4363 54.4167 41.8717 54.241 42.2231 53.8896C42.5745 53.5382 42.7502 53.1028 42.7502 52.5833V49.8333H45.5002C46.0196 49.8333 46.455 49.6576 46.8064 49.3062C47.1578 48.9548 47.3335 48.5194 47.3335 48V46.1667C47.3335 45.6472 47.1578 45.2118 46.8064 44.8604C46.455 44.509 46.0196 44.3333 45.5002 44.3333H42.7502V41.5833C42.7502 41.0639 42.5745 40.6285 42.2231 40.2771C41.8717 39.9257 41.4363 39.75 40.9168 39.75H39.0835C38.5641 39.75 38.1286 39.9257 37.7772 40.2771C37.4259 40.6285 37.2502 41.0639 37.2502 41.5833V44.3333H34.5002C33.9807 44.3333 33.5453 44.509 33.1939 44.8604C32.8425 45.2118 32.6668 45.6472 32.6668 46.1667V48C32.6668 48.5194 32.8425 48.9548 33.1939 49.3062C33.5453 49.6576 33.9807 49.8333 34.5002 49.8333H37.2502ZM40.0002 66.15C39.7863 66.15 39.5877 66.1347 39.4043 66.1042C39.221 66.0736 39.0377 66.0278 38.8543 65.9667C34.7293 64.5917 31.4446 62.0479 29.0002 58.3354C26.5557 54.6229 25.3335 50.6278 25.3335 46.35V37.6875C25.3335 36.9236 25.555 36.2361 25.9981 35.625C26.4411 35.0139 27.0141 34.5708 27.7168 34.2958L38.7168 30.1708C39.1446 30.018 39.5724 29.9417 40.0002 29.9417C40.4279 29.9417 40.8557 30.018 41.2835 30.1708L52.2835 34.2958C52.9863 34.5708 53.5592 35.0139 54.0022 35.625C54.4453 36.2361 54.6668 36.9236 54.6668 37.6875V46.35C54.6668 50.6278 53.4446 54.6229 51.0002 58.3354C48.5557 62.0479 45.271 64.5917 41.146 65.9667C40.9627 66.0278 40.7793 66.0736 40.596 66.1042C40.4127 66.1347 40.2141 66.15 40.0002 66.15ZM40.0002 62.4833C43.1779 61.475 45.8057 59.4583 47.8835 56.4333C49.9613 53.4083 51.0002 50.0472 51.0002 46.35V37.6875L40.0002 33.5625L29.0002 37.6875V46.35C29.0002 50.0472 30.0391 53.4083 32.1168 56.4333C34.1946 59.4583 36.8224 61.475 40.0002 62.4833Z" fill="url(#paint4_linear_525_3822)"/>
</g>
<defs>
<filter id="filter0_b_525_3822" x="-5" y="3" width="90" height="89.7908" filterUnits="userSpaceOnUse" color-interpolation-filters="sRGB">
<feFlood flood-opacity="0" result="BackgroundImageFix"/>
<feGaussianBlur in="BackgroundImageFix" stdDeviation="2.5"/>
<feComposite in2="SourceAlpha" operator="in" result="effect1_backgroundBlur_525_3822"/>
<feBlend mode="normal" in="SourceGraphic" in2="effect1_backgroundBlur_525_3822" result="shape"/>
</filter>
<filter id="filter1_f_525_3822" x="1.40435" y="0.160212" width="76.6784" height="58.6437" filterUnits="userSpaceOnUse" color-interpolation-filters="sRGB">
<feFlood flood-opacity="0" result="BackgroundImageFix"/>
<feBlend mode="normal" in="SourceGraphic" in2="BackgroundImageFix" result="shape"/>
<feGaussianBlur stdDeviation="6.47727" result="effect1_foregroundBlur_525_3822"/>
</filter>
<radialGradient id="paint0_radial_525_3822" cx="0" cy="0" r="1" gradientUnits="userSpaceOnUse" gradientTransform="translate(6.69204 8) rotate(47.9449) scale(119.431 86.7751)">
<stop stop-color="white" stop-opacity="0.36"/>
<stop offset="1" stop-color="white" stop-opacity="0"/>
</radialGradient>
<radialGradient id="paint1_radial_525_3822" cx="0" cy="0" r="1" gradientUnits="userSpaceOnUse" gradientTransform="translate(-42.5965 16.1628) rotate(35.0407) scale(92.1512 54.3882)">
<stop stop-color="white"/>
<stop offset="1" stop-color="white" stop-opacity="0.06"/>
</radialGradient>
<radialGradient id="paint2_radial_525_3822" cx="0" cy="0" r="1" gradientUnits="userSpaceOnUse" gradientTransform="translate(40.871 -10.2359) rotate(47.2149) scale(44.643 32.0879)">
<stop/>
<stop offset="1" stop-color="white" stop-opacity="0"/>
</radialGradient>
<radialGradient id="paint3_radial_525_3822" cx="0" cy="0" r="1" gradientUnits="userSpaceOnUse" gradientTransform="translate(39.7435 13.1147) rotate(90) scale(24.2566 37.625)">
<stop stop-color="white"/>
<stop offset="1" stop-color="white" stop-opacity="0"/>
</radialGradient>
<linearGradient id="paint4_linear_525_3822" x1="40.0002" y1="29.9417" x2="40.0002" y2="66.15" gradientUnits="userSpaceOnUse">
<stop stop-color="#7049C3"/>
<stop offset="1" stop-color="#DC8DF8"/>
</linearGradient>
</defs>
</svg>
