<svg width="80" height="88" viewBox="0 0 80 88" fill="none" xmlns="http://www.w3.org/2000/svg">
<g filter="url(#filter0_b_525_3813)">
<path d="M0 47.8954C0 25.8618 17.9664 8 40 8C62.0336 8 80 25.8618 80 47.8954C80 69.929 62.0336 87.7908 40 87.7908C17.9664 87.7908 0 69.929 0 47.8954Z" fill="url(#paint0_radial_525_3813)"/>
<path d="M0.5 47.8954C0.5 26.1396 18.2408 8.5 40 8.5C61.7592 8.5 79.5 26.1396 79.5 47.8954C79.5 69.6512 61.7592 87.2908 40 87.2908C18.2408 87.2908 0.5 69.6512 0.5 47.8954Z" stroke="url(#paint1_radial_525_3813)"/>
<path d="M0.5 47.8954C0.5 26.1396 18.2408 8.5 40 8.5C61.7592 8.5 79.5 26.1396 79.5 47.8954C79.5 69.6512 61.7592 87.2908 40 87.2908C18.2408 87.2908 0.5 69.6512 0.5 47.8954Z" stroke="url(#paint2_radial_525_3813)"/>
</g>
<g filter="url(#filter1_f_525_3813)">
<ellipse cx="39.7435" cy="29.4821" rx="25.3846" ry="16.3673" fill="url(#paint3_radial_525_3813)" fill-opacity="0.2"/>
</g>
<mask id="mask0_525_3813" style="mask-type:alpha" maskUnits="userSpaceOnUse" x="18" y="26" width="44" height="44">
<rect x="18" y="26" width="44" height="44" fill="#D9D9D9"/>
</mask>
<g mask="url(#mask0_525_3813)">
<path d="M27.1666 60.8333H45.4999C46.0194 60.8333 46.4548 61.009 46.8062 61.3604C47.1576 61.7118 47.3333 62.1472 47.3333 62.6667C47.3333 63.1861 47.1576 63.6215 46.8062 63.9729C46.4548 64.3243 46.0194 64.5 45.4999 64.5H27.1666C26.6471 64.5 26.2117 64.3243 25.8603 63.9729C25.5089 63.6215 25.3333 63.1861 25.3333 62.6667C25.3333 62.1472 25.5089 61.7118 25.8603 61.3604C26.2117 61.009 26.6471 60.8333 27.1666 60.8333ZM33.0791 52.9958L27.8999 47.8167C27.1971 47.1139 26.8381 46.2507 26.8228 45.2271C26.8076 44.2035 27.1513 43.3403 27.8541 42.6375L29.1833 41.3083L39.6333 51.6667L38.3041 52.9958C37.6013 53.6986 36.7305 54.05 35.6916 54.05C34.6527 54.05 33.7819 53.6986 33.0791 52.9958ZM47.3333 43.9667L36.9749 33.5167L38.3041 32.1875C39.0069 31.4847 39.8701 31.141 40.8937 31.1562C41.9173 31.1715 42.7805 31.5306 43.4833 32.2333L48.6624 37.4125C49.3652 38.1153 49.7166 38.9861 49.7166 40.025C49.7166 41.0639 49.3652 41.9347 48.6624 42.6375L47.3333 43.9667ZM54.4833 61.3833L31.8416 38.7417L34.4083 36.175L57.0499 58.8167C57.386 59.1528 57.5541 59.5806 57.5541 60.1C57.5541 60.6194 57.386 61.0472 57.0499 61.3833C56.7138 61.7194 56.286 61.8875 55.7666 61.8875C55.2471 61.8875 54.8194 61.7194 54.4833 61.3833Z" fill="url(#paint4_linear_525_3813)"/>
</g>
<defs>
<filter id="filter0_b_525_3813" x="-5" y="3" width="90" height="89.7908" filterUnits="userSpaceOnUse" color-interpolation-filters="sRGB">
<feFlood flood-opacity="0" result="BackgroundImageFix"/>
<feGaussianBlur in="BackgroundImageFix" stdDeviation="2.5"/>
<feComposite in2="SourceAlpha" operator="in" result="effect1_backgroundBlur_525_3813"/>
<feBlend mode="normal" in="SourceGraphic" in2="effect1_backgroundBlur_525_3813" result="shape"/>
</filter>
<filter id="filter1_f_525_3813" x="1.40435" y="0.160212" width="76.6784" height="58.6437" filterUnits="userSpaceOnUse" color-interpolation-filters="sRGB">
<feFlood flood-opacity="0" result="BackgroundImageFix"/>
<feBlend mode="normal" in="SourceGraphic" in2="BackgroundImageFix" result="shape"/>
<feGaussianBlur stdDeviation="6.47727" result="effect1_foregroundBlur_525_3813"/>
</filter>
<radialGradient id="paint0_radial_525_3813" cx="0" cy="0" r="1" gradientUnits="userSpaceOnUse" gradientTransform="translate(6.69204 8) rotate(47.9449) scale(119.431 86.7751)">
<stop stop-color="white" stop-opacity="0.36"/>
<stop offset="1" stop-color="white" stop-opacity="0"/>
</radialGradient>
<radialGradient id="paint1_radial_525_3813" cx="0" cy="0" r="1" gradientUnits="userSpaceOnUse" gradientTransform="translate(-42.5965 16.1628) rotate(35.0407) scale(92.1512 54.3882)">
<stop stop-color="white"/>
<stop offset="1" stop-color="white" stop-opacity="0.06"/>
</radialGradient>
<radialGradient id="paint2_radial_525_3813" cx="0" cy="0" r="1" gradientUnits="userSpaceOnUse" gradientTransform="translate(40.871 -10.2359) rotate(47.2149) scale(44.643 32.0879)">
<stop/>
<stop offset="1" stop-color="white" stop-opacity="0"/>
</radialGradient>
<radialGradient id="paint3_radial_525_3813" cx="0" cy="0" r="1" gradientUnits="userSpaceOnUse" gradientTransform="translate(39.7435 13.1147) rotate(90) scale(24.2566 37.625)">
<stop stop-color="white"/>
<stop offset="1" stop-color="white" stop-opacity="0"/>
</radialGradient>
<linearGradient id="paint4_linear_525_3813" x1="41.4437" y1="31.1558" x2="41.4437" y2="64.5" gradientUnits="userSpaceOnUse">
<stop stop-color="#7049C3"/>
<stop offset="1" stop-color="#DC8DF8"/>
</linearGradient>
</defs>
</svg>
