<svg width="108" height="18" viewBox="0 0 108 18" fill="none" xmlns="http://www.w3.org/2000/svg">
<path d="M99.2954 11.6157L96.0314 17.7357H95.5754L90.9434 6.71973H93.7274L96.1034 13.1277L99.2474 6.71973H99.3434L102.511 13.0797L104.887 6.71973H107.623L103.015 17.7357H102.559L99.2954 11.6157Z" fill="white"/>
<path d="M71.3462 17.9761C70.0342 17.9761 68.9382 17.7201 68.0582 17.2081C67.1782 16.6801 66.5302 15.9841 66.1142 15.1201C65.6982 14.2401 65.4902 13.2801 65.4902 12.2401C65.4902 11.0721 65.7302 10.0481 66.2102 9.16813C66.7062 8.28813 67.3862 7.61613 68.2502 7.15213C69.1142 6.67213 70.0902 6.43213 71.1782 6.43213C72.8742 6.43213 74.1302 6.90413 74.9462 7.84813C75.7782 8.77613 76.1942 10.0881 76.1942 11.7841C76.1942 12.2161 76.1702 12.6641 76.1222 13.1281H68.2022C68.3782 14.1041 68.7222 14.8081 69.2342 15.2401C69.7622 15.6721 70.4902 15.8881 71.4182 15.8881C72.1862 15.8881 72.8182 15.8241 73.3142 15.6961C73.8102 15.5681 74.2662 15.3921 74.6822 15.1681L75.4742 17.0161C75.0742 17.2721 74.5302 17.4961 73.8422 17.6881C73.1542 17.8801 72.3222 17.9761 71.3462 17.9761ZM73.6742 11.3281C73.6902 10.3361 73.4742 9.64013 73.0262 9.24013C72.5782 8.82413 71.9382 8.61613 71.1062 8.61613C69.4262 8.61613 68.4582 9.52013 68.2022 11.3281H73.6742Z" fill="white"/>
<path d="M44.8101 6.72013H47.4021V8.71213C47.7541 7.96013 48.2661 7.39213 48.9381 7.00813C49.6261 6.62413 50.4101 6.43213 51.2901 6.43213C53.2581 6.44813 54.4661 7.12813 54.9141 8.47213C55.2661 7.84813 55.7941 7.35213 56.4981 6.98413C57.2021 6.61613 57.9461 6.43213 58.7301 6.43213C59.8821 6.43213 60.7541 6.65613 61.3461 7.10413C61.9381 7.53613 62.3301 8.16013 62.5221 8.97613C62.7301 9.77613 62.8341 10.8561 62.8341 12.2161V17.7361H60.2181V12.1921C60.2181 10.8961 60.0821 9.96813 59.8101 9.40813C59.5541 8.84813 59.0501 8.56813 58.2981 8.56813C57.2901 8.56813 56.5221 8.91213 55.9941 9.60013C55.4821 10.2721 55.2261 11.1601 55.2261 12.2641V17.7361H52.6341V11.8081C52.6341 10.9601 52.6021 10.3281 52.5381 9.91213C52.4741 9.49613 52.2981 9.16813 52.0101 8.92813C51.7221 8.68813 51.2581 8.56813 50.6181 8.56813C50.0581 8.56813 49.5301 8.73613 49.0341 9.07213C48.5541 9.40813 48.1621 9.86413 47.8581 10.4401C47.5701 11.0001 47.4261 11.6081 47.4261 12.2641V17.7361H44.8101V6.72013Z" fill="white"/>
<path d="M38.604 0.0957031H41.172V17.7357H38.604V0.0957031Z" fill="white"/>
<path d="M32.1821 0.0957031H34.7501V17.7357H32.1821V0.0957031Z" fill="white"/>
<path d="M25.6898 6.71997H28.3778V17.736H25.6898V6.71997ZM27.0098 4.65597C26.5138 4.65597 26.0978 4.48797 25.7618 4.15197C25.4258 3.81597 25.2578 3.39997 25.2578 2.90397C25.2578 2.45597 25.4258 2.07197 25.7618 1.75197C26.0978 1.43197 26.5138 1.27197 27.0098 1.27197C27.4898 1.27197 27.8978 1.43197 28.2338 1.75197C28.5698 2.07197 28.7378 2.45597 28.7378 2.90397C28.7378 3.39997 28.5698 3.81597 28.2338 4.15197C27.9138 4.48797 27.5058 4.65597 27.0098 4.65597Z" fill="white"/>
<path d="M16.896 11.448L21.12 0.0959997H23.976L17.112 17.736H16.776L11.976 6.312L7.2 17.712H6.864L0 0.0959997H2.856L7.08 11.448L11.928 0H12.072L16.896 11.448Z" fill="white"/>
</svg>
